<?xml version="1.0" encoding="UTF-8" standalone="no"?>
<!DOCTYPE svg>
<svg version="1.1" xmlns="http://www.w3.org/2000/svg" xmlns:xlink="http://www.w3.org/1999/xlink" preserveAspectRatio="xMidYMid meet" viewBox="0 0 640 640" width="640" height="640"><defs><path d="M0 0L670.85 0L670.85 658.28L0 658.28L0 0Z" id="a17zIZoyLp"></path><text id="c187CENnKe" x="202.2" y="150.57" font-size="42" font-family="Open Sans" font-weight="normal" font-style="normal" letter-spacing="0" alignment-baseline="before-edge" transform="matrix(1 0 0 1 -29.55614176484437 -107.24511640353256)" style="line-height:100%" xml:space="preserve" dominant-baseline="text-before-edge"><tspan x="202.2" dy="0em" alignment-baseline="before-edge" dominant-baseline="text-before-edge" text-anchor="start">MacBook Air</tspan></text><style id="opensansnormalnormal">
   
    </style><path d="M449.57 123.58C460.61 123.58 469.57 132.54 469.57 143.58C469.57 182.77 469.57 280.34 469.57 319.53C469.57 330.57 460.61 339.53 449.57 339.53C387.64 339.53 221.84 339.53 159.91 339.53C148.86 339.53 139.91 330.57 139.91 319.53C139.91 280.34 139.91 182.77 139.91 143.58C139.91 132.54 148.86 123.58 159.91 123.58C221.84 123.58 387.64 123.58 449.57 123.58Z" id="g2q11U6Wg"></path><path d="M450.72 339.53C461.76 339.53 470.72 348.48 470.72 359.53C470.72 398.72 470.72 496.28 470.72 535.47C470.72 546.52 461.76 555.47 450.72 555.47C388.78 555.47 222.99 555.47 161.05 555.47C150.01 555.47 141.05 546.52 141.05 535.47C141.05 496.28 141.05 398.72 141.05 359.53C141.05 348.48 150.01 339.53 161.05 339.53C222.99 339.53 388.78 339.53 450.72 339.53Z" id="alGZepnt0"></path><path d="M172.64 339.53L439.13 339.53L439.13 351.01L172.64 351.01L172.64 339.53Z" id="b7hzltalKX"></path><path d="M269.7 485.81L342.07 485.81L342.07 542.84L269.7 542.84L269.7 485.81Z" id="djC9NdjrD"></path><path d="M156.56 143.11L452.91 143.11L452.91 320L156.56 320L156.56 143.11Z" id="f1uUr0u2n2"></path><path d="M172.64 376.28L189.05 376.28L189.05 392.36L172.64 392.36L172.64 376.28Z" id="b5s0haiLlB"></path><path d="M375.28 376.28L391.69 376.28L391.69 392.36L375.28 392.36L375.28 376.28Z" id="b7ykSKDBW"></path><path d="M402.31 376.28L418.72 376.28L418.72 392.36L402.31 392.36L402.31 376.28Z" id="bigw27k0I"></path><path d="M426.76 392.36L443.18 392.36L443.18 376.28L426.76 376.28L426.76 392.36Z" id="b1grmdhFsJ"></path><path d="M249.01 472.09L342.67 472.59L342.76 456.5L249.1 456.01L249.01 472.09Z" id="f79s5TMIS"></path><path d="M198.45 376.28L214.86 376.28L214.86 392.36L198.45 392.36L198.45 376.28Z" id="b458eglHHv"></path><path d="M221.54 376.28L237.95 376.28L237.95 392.36L221.54 392.36L221.54 376.28Z" id="b3in24SIXT"></path><path d="M249.05 376.28L265.47 376.28L265.47 392.36L249.05 392.36L249.05 376.28Z" id="aSP6ImvTZ"></path><path d="M348.86 376.28L365.27 376.28L365.27 392.36L348.86 392.36L348.86 376.28Z" id="b7XkQmzaIn"></path><path d="M325.66 376.28L342.07 376.28L342.07 392.36L325.66 392.36L325.66 376.28Z" id="arV0ir40P"></path><path d="M301.29 376.28L317.7 376.28L317.7 392.36L301.29 392.36L301.29 376.28Z" id="a4V2Vdogcs"></path><path d="M275.95 376.28L292.36 376.28L292.36 392.36L275.95 392.36L275.95 376.28Z" id="dny70HC4"></path><path d="M172.64 404.32L189.05 404.32L189.05 420.41L172.64 420.41L172.64 404.32Z" id="a4eliHWbhD"></path><path d="M375.28 404.32L391.69 404.32L391.69 420.41L375.28 420.41L375.28 404.32Z" id="e1YpLFwIFw"></path><path d="M402.31 404.32L418.72 404.32L418.72 420.41L402.31 420.41L402.31 404.32Z" id="aX0s4ZZqL"></path><path d="M426.76 420.41L443.18 420.41L443.18 404.32L426.76 404.32L426.76 420.41Z" id="d2fRFQQRaX"></path><path d="M198.45 404.32L214.86 404.32L214.86 420.41L198.45 420.41L198.45 404.32Z" id="e4WOfon7bi"></path><path d="M221.54 404.32L237.95 404.32L237.95 420.41L221.54 420.41L221.54 404.32Z" id="d5WCY01LH"></path><path d="M249.05 404.32L265.47 404.32L265.47 420.41L249.05 420.41L249.05 404.32Z" id="a2aHf5Djih"></path><path d="M348.86 404.32L365.27 404.32L365.27 420.41L348.86 420.41L348.86 404.32Z" id="b2LzD3AsXJ"></path><path d="M325.66 404.32L342.07 404.32L342.07 420.41L325.66 420.41L325.66 404.32Z" id="b5ZjjDCY1"></path><path d="M301.29 404.32L317.7 404.32L317.7 420.41L301.29 420.41L301.29 404.32Z" id="h1sJE6w2hm"></path><path d="M275.95 404.32L292.36 404.32L292.36 420.41L275.95 420.41L275.95 404.32Z" id="l2CpGMOiGm"></path><path d="M172.64 431.42L189.05 431.42L189.05 447.5L172.64 447.5L172.64 431.42Z" id="d2LWHzKaD5"></path><path d="M375.28 431.42L391.69 431.42L391.69 447.5L375.28 447.5L375.28 431.42Z" id="aBxtwOip0"></path><path d="M402.31 431.42L418.72 431.42L418.72 447.5L402.31 447.5L402.31 431.42Z" id="c1ZiDdlLOC"></path><path d="M426.76 447.5L443.18 447.5L443.18 431.42L426.76 431.42L426.76 447.5Z" id="abl91QZL"></path><path d="M198.45 431.42L214.86 431.42L214.86 447.5L198.45 447.5L198.45 431.42Z" id="bxEC1CyVi"></path><path d="M221.54 431.42L237.95 431.42L237.95 447.5L221.54 447.5L221.54 431.42Z" id="j140gebV78"></path><path d="M249.05 431.42L265.47 431.42L265.47 447.5L249.05 447.5L249.05 431.42Z" id="a7uuZ2ymMq"></path><path d="M348.86 431.42L365.27 431.42L365.27 447.5L348.86 447.5L348.86 431.42Z" id="a1CKcjpgkK"></path><path d="M325.66 431.42L342.07 431.42L342.07 447.5L325.66 447.5L325.66 431.42Z" id="bAo3u6AUl"></path><path d="M301.29 431.42L317.7 431.42L317.7 447.5L301.29 447.5L301.29 431.42Z" id="e23ZxTirxc"></path><path d="M275.95 431.42L292.36 431.42L292.36 447.5L275.95 447.5L275.95 431.42Z" id="b4VYlpjt7"></path><path d="M172.64 456.28L189.05 456.28L189.05 472.36L172.64 472.36L172.64 456.28Z" id="b7PcGk0FI"></path><path d="M375.28 456.28L391.69 456.28L391.69 472.36L375.28 472.36L375.28 456.28Z" id="aCsQeOonu"></path><path d="M402.31 456.28L418.72 456.28L418.72 472.36L402.31 472.36L402.31 456.28Z" id="e203jxgTzY"></path><path d="M426.76 472.36L443.18 472.36L443.18 456.28L426.76 456.28L426.76 472.36Z" id="e2OBJxCTJj"></path><path d="M198.45 456.28L214.86 456.28L214.86 472.36L198.45 472.36L198.45 456.28Z" id="a78vxvMNQn"></path><path d="M221.54 456.28L237.95 456.28L237.95 472.36L221.54 472.36L221.54 456.28Z" id="aex8swklv"></path><path d="M348.86 456.28L365.27 456.28L365.27 472.36L348.86 472.36L348.86 456.28Z" id="d4Ycnluoj"></path><path d="M325.66 456.28L342.07 456.28L342.07 472.36L325.66 472.36L325.66 456.28Z" id="a2dyG4Sxjz"></path><path d="M301.29 456.28L317.7 456.28L317.7 472.36L301.29 472.36L301.29 456.28Z" id="a2sOvsHdfZ"></path><path d="M275.95 456.28L292.36 456.28L292.36 472.36L275.95 472.36L275.95 456.28Z" id="b3aO1Rw943"></path><text id="a5978ofiL" x="265.47" y="329.14" font-size="14" font-family="Open Sans" font-weight="normal" font-style="normal" letter-spacing="0" alignment-baseline="before-edge" transform="matrix(1 0 0 1 -0.6653022110571669 -8.611486486488332)" style="line-height:100%" xml:space="preserve" dominant-baseline="text-before-edge"><tspan x="265.47" dy="0em" alignment-baseline="before-edge" dominant-baseline="text-before-edge" text-anchor="start">MacBook Air</tspan></text></defs><g><g><g><use xlink:href="#a17zIZoyLp" opacity="1" fill="#f9f9f9" fill-opacity="1"></use></g><g id="dnSO58EBa"><use xlink:href="#c187CENnKe" opacity="1" fill="#000000" fill-opacity="1"></use></g><g><use xlink:href="#g2q11U6Wg" opacity="1" fill="#c2c2c2" fill-opacity="1"></use><g><use xlink:href="#g2q11U6Wg" opacity="1" fill-opacity="0" stroke="#000000" stroke-width="1" stroke-opacity="1"></use></g></g><g><use xlink:href="#alGZepnt0" opacity="1" fill="#bdbaba" fill-opacity="1"></use><g><use xlink:href="#alGZepnt0" opacity="1" fill-opacity="0" stroke="#020202" stroke-width="1" stroke-opacity="1"></use></g></g><g><use xlink:href="#b7hzltalKX" opacity="1" fill="#050000" fill-opacity="1"></use></g><g><use xlink:href="#djC9NdjrD" opacity="1" fill="#f0ebeb" fill-opacity="1"></use></g><g><use xlink:href="#f1uUr0u2n2" opacity="1" fill="#0c0303" fill-opacity="1"></use></g><g><use xlink:href="#b5s0haiLlB" opacity="1" fill="#0e0303" fill-opacity="1"></use></g><g><use xlink:href="#b7ykSKDBW" opacity="1" fill="#0e0303" fill-opacity="1"></use></g><g><use xlink:href="#bigw27k0I" opacity="1" fill="#0e0303" fill-opacity="1"></use></g><g><use xlink:href="#b1grmdhFsJ" opacity="1" fill="#0e0303" fill-opacity="1"></use></g><g><use xlink:href="#f79s5TMIS" opacity="1" fill="#0e0303" fill-opacity="1"></use></g><g><use xlink:href="#b458eglHHv" opacity="1" fill="#0e0303" fill-opacity="1"></use></g><g><use xlink:href="#b3in24SIXT" opacity="1" fill="#0e0303" fill-opacity="1"></use></g><g><use xlink:href="#aSP6ImvTZ" opacity="1" fill="#0e0303" fill-opacity="1"></use></g><g><use xlink:href="#b7XkQmzaIn" opacity="1" fill="#0e0303" fill-opacity="1"></use></g><g><use xlink:href="#arV0ir40P" opacity="1" fill="#0e0303" fill-opacity="1"></use></g><g><use xlink:href="#a4V2Vdogcs" opacity="1" fill="#0e0303" fill-opacity="1"></use></g><g><use xlink:href="#dny70HC4" opacity="1" fill="#0e0303" fill-opacity="1"></use></g><g><use xlink:href="#a4eliHWbhD" opacity="1" fill="#0e0303" fill-opacity="1"></use></g><g><use xlink:href="#e1YpLFwIFw" opacity="1" fill="#0e0303" fill-opacity="1"></use></g><g><use xlink:href="#aX0s4ZZqL" opacity="1" fill="#0e0303" fill-opacity="1"></use></g><g><use xlink:href="#d2fRFQQRaX" opacity="1" fill="#0e0303" fill-opacity="1"></use></g><g><use xlink:href="#e4WOfon7bi" opacity="1" fill="#0e0303" fill-opacity="1"></use></g><g><use xlink:href="#d5WCY01LH" opacity="1" fill="#0e0303" fill-opacity="1"></use></g><g><use xlink:href="#a2aHf5Djih" opacity="1" fill="#0e0303" fill-opacity="1"></use></g><g><use xlink:href="#b2LzD3AsXJ" opacity="1" fill="#0e0303" fill-opacity="1"></use></g><g><use xlink:href="#b5ZjjDCY1" opacity="1" fill="#0e0303" fill-opacity="1"></use></g><g><use xlink:href="#h1sJE6w2hm" opacity="1" fill="#0e0303" fill-opacity="1"></use></g><g><use xlink:href="#l2CpGMOiGm" opacity="1" fill="#0e0303" fill-opacity="1"></use></g><g><use xlink:href="#d2LWHzKaD5" opacity="1" fill="#0e0303" fill-opacity="1"></use></g><g><use xlink:href="#aBxtwOip0" opacity="1" fill="#0e0303" fill-opacity="1"></use></g><g><use xlink:href="#c1ZiDdlLOC" opacity="1" fill="#0e0303" fill-opacity="1"></use></g><g><use xlink:href="#abl91QZL" opacity="1" fill="#0e0303" fill-opacity="1"></use></g><g><use xlink:href="#bxEC1CyVi" opacity="1" fill="#0e0303" fill-opacity="1"></use></g><g><use xlink:href="#j140gebV78" opacity="1" fill="#0e0303" fill-opacity="1"></use></g><g><use xlink:href="#a7uuZ2ymMq" opacity="1" fill="#0e0303" fill-opacity="1"></use></g><g><use xlink:href="#a1CKcjpgkK" opacity="1" fill="#0e0303" fill-opacity="1"></use></g><g><use xlink:href="#bAo3u6AUl" opacity="1" fill="#0e0303" fill-opacity="1"></use></g><g><use xlink:href="#e23ZxTirxc" opacity="1" fill="#0e0303" fill-opacity="1"></use></g><g><use xlink:href="#b4VYlpjt7" opacity="1" fill="#0e0303" fill-opacity="1"></use></g><g><use xlink:href="#b7PcGk0FI" opacity="1" fill="#0e0303" fill-opacity="1"></use></g><g><use xlink:href="#aCsQeOonu" opacity="1" fill="#0e0303" fill-opacity="1"></use></g><g><use xlink:href="#e203jxgTzY" opacity="1" fill="#0e0303" fill-opacity="1"></use></g><g><use xlink:href="#e2OBJxCTJj" opacity="1" fill="#0e0303" fill-opacity="1"></use></g><g><use xlink:href="#a78vxvMNQn" opacity="1" fill="#0e0303" fill-opacity="1"></use></g><g><use xlink:href="#aex8swklv" opacity="1" fill="#0e0303" fill-opacity="1"></use></g><g><use xlink:href="#d4Ycnluoj" opacity="1" fill="#0e0303" fill-opacity="1"></use></g><g><use xlink:href="#a2dyG4Sxjz" opacity="1" fill="#0e0303" fill-opacity="1"></use></g><g><use xlink:href="#a2sOvsHdfZ" opacity="1" fill="#0e0303" fill-opacity="1"></use></g><g><use xlink:href="#b3aO1Rw943" opacity="1" fill="#0e0303" fill-opacity="1"></use></g><g id="a1qvSNkjOu"><use xlink:href="#a5978ofiL" opacity="1" fill="#0e0303" fill-opacity="1"></use></g></g></g></svg>