<?xml version="1.0" encoding="UTF-8" standalone="no"?>
<!DOCTYPE svg>
<svg version="1.1" xmlns="http://www.w3.org/2000/svg" xmlns:xlink="http://www.w3.org/1999/xlink" preserveAspectRatio="xMidYMid meet" viewBox="0 0 640 640" width="640" height="640"><defs><path d="M0 2.4L677.23 2.4L677.23 640L0 640L0 2.4Z" id="c13KTPIbZ2"></path><path d="M393.04 142.53C404.09 142.53 413.04 151.49 413.04 162.53C413.04 232.97 413.04 424.26 413.04 494.7C413.04 505.74 404.09 514.7 393.04 514.7C353.62 514.7 255.36 514.7 215.95 514.7C204.9 514.7 195.95 505.74 195.95 494.7C195.95 424.26 195.95 232.97 195.95 162.53C195.95 151.49 204.9 142.53 215.95 142.53C255.36 142.53 353.62 142.53 393.04 142.53Z" id="bkjVKez6p"></path><path d="M213.18 156.32L398.11 156.32L398.11 500.91L213.18 500.91L213.18 156.32Z" id="cAEejCJHt"></path><path d="M321.15 486.55C321.15 494.48 314.2 500.91 305.64 500.91C297.08 500.91 290.14 494.48 290.14 486.55C290.14 478.63 297.08 472.2 305.64 472.2C314.2 472.2 321.15 478.63 321.15 486.55Z" id="cRh0BlqEE"></path><path d="M309.38 486.55C309.38 489.57 307.19 492.01 304.49 492.01C301.8 492.01 299.61 489.57 299.61 486.55C299.61 483.54 301.8 481.1 304.49 481.1C307.19 481.1 309.38 483.54 309.38 486.55Z" id="j17GDuL7tb"></path><text id="dWaPQ39qa" x="174.12" y="64.43" font-size="31" font-family="Open Sans" font-weight="normal" font-style="normal" letter-spacing="0" alignment-baseline="before-edge" transform="matrix(0.9999999999999999 0 0 0.9999999999999999 69.76667782413759 13.201519491842078)" style="line-height:100%" xml:space="preserve" dominant-baseline="text-before-edge"><tspan x="174.12" dy="0em" alignment-baseline="before-edge" dominant-baseline="text-before-edge" text-anchor="start">Iphone X</tspan></text><style id="opensansnormalnormal">
 </style><path d="M359.92 148.28C367.21 148.28 373.13 154.19 373.13 161.49C373.13 164.13 373.13 158.84 373.13 161.49C373.13 168.78 367.21 174.7 359.92 174.7C337.06 174.7 281.69 174.7 258.83 174.7C251.54 174.7 245.63 168.78 245.63 161.49C245.63 158.84 245.63 164.13 245.63 161.49C245.63 154.19 251.54 148.28 258.83 148.28C281.69 148.28 337.06 148.28 359.92 148.28Z" id="b1UeXojXSl"></path></defs><g><g><g><use xlink:href="#c13KTPIbZ2" opacity="1" fill="#fefcfe" fill-opacity="1"></use></g><g><use xlink:href="#bkjVKez6p" opacity="1" fill="#0b040b" fill-opacity="1"></use></g><g><use xlink:href="#cAEejCJHt" opacity="1" fill="#f3eff3" fill-opacity="1"></use></g><g><use xlink:href="#cRh0BlqEE" opacity="1" fill="#f3eff3" fill-opacity="1"></use></g><g><use xlink:href="#j17GDuL7tb" opacity="1" fill="#030003" fill-opacity="1"></use></g><g id="e1l2Menyh"><use xlink:href="#dWaPQ39qa" opacity="1" fill="#030003" fill-opacity="1"></use></g><g><use xlink:href="#b1UeXojXSl" opacity="1" fill="#000000" fill-opacity="1"></use></g></g></g></svg>